<svg xmlns="http://www.w3.org/2000/svg" width="1em" height="1em" viewBox="0 0 256 198" fill="currentColor">
  <path d="M216.856 16.333c-18.428-7.41-38.16-10.848-58.825-10.848-20.664 0-40.396 3.438-58.824 10.848-18.428 7.41-34.572 19.95-47.362 35.244C2.943 91.84.002 132.11.002 172.38c0 11.33 1.88 22.31 5.41 32.79C23.84 175.44 56.71 148.28 56.71 148.28s-4.72-5.41-8.25-10.84c-14.55-22.3-16.43-45.48-16.43-45.48s31.12-3.44 53.41-3.44c22.3 0 53.42 3.44 53.42 3.44s-1.88 23.18-16.43 45.48c-3.53 5.43-8.25 10.84-8.25 10.84s32.87 27.16 51.3 56.87c3.53-10.48 5.41-21.46 5.41-32.79 0-40.27-2.94-80.54-31.84-120.804-12.79-15.294-28.934-27.834-47.362-35.244zm-110.98 91.84c-10.48 0-18.81-8.25-18.81-18.81s8.33-18.81 18.81-18.81c10.48 0 18.81 8.33 18.81 18.81.01 10.56-8.32 18.81-18.81 18.81zm58.82 0c-10.48 0-18.81-8.25-18.81-18.81s8.33-18.81 18.81-18.81c10.48 0 18.81 8.33 18.81 18.81.01 10.56-8.32 18.81-18.81 18.81z"/>
</svg>
